<?xml version="1.0" standalone="no"?>
<!DOCTYPE svg PUBLIC "-//W3C//DTD SVG 20010904//EN"
 "http://www.w3.org/TR/2001/REC-SVG-20010904/DTD/svg10.dtd">
<svg version="1.0" xmlns="http://www.w3.org/2000/svg"
 width="100.000000pt" height="100.000000pt" viewBox="0 0 100.000000 100.000000"
 preserveAspectRatio="xMidYMid meet">
<metadata>
Created by potrace 1.11, written by Peter Selinger 2001-2013
</metadata>
<g transform="translate(0.000000,100.000000) scale(0.100000,-0.100000)"
fill="#000000" stroke="none">
<path d="M205 944 c-11 -3 -37 -10 -58 -15 -21 -6 -47 -19 -57 -29 -16 -16
-18 -24 -9 -50 16 -43 35 -50 99 -36 56 13 215 14 260 2 14 -4 36 -9 49 -12
65 -13 141 -62 141 -90 0 -29 -28 -36 -77 -20 -151 49 -346 55 -445 13 -35
-15 -56 -60 -37 -83 18 -22 58 -41 104 -49 22 -4 45 -8 52 -9 7 -1 15 -5 19
-9 4 -4 18 -4 30 -1 21 6 24 3 24 -25 0 -25 -4 -31 -22 -32 -13 -1 -27 0 -33
1 -5 1 -34 -1 -63 -5 -58 -7 -79 -29 -46 -49 19 -11 32 -13 107 -15 36 -1 38
-3 35 -28 -3 -25 -8 -28 -45 -31 -43 -3 -73 -26 -57 -42 11 -11 144 -38 168
-34 10 1 16 -2 14 -8 -2 -6 -25 -12 -50 -13 -45 -3 -98 -28 -98 -46 0 -12 61
-49 71 -44 4 3 13 -3 20 -12 12 -14 12 -16 -1 -11 -8 2 -23 -6 -34 -20 -19
-24 -19 -24 7 -48 38 -35 185 -61 201 -35 14 22 -57 38 -89 20 -9 -5 -29 -5
-40 1 -6 3 -12 5 -42 15 -25 8 -32 43 -10 50 30 11 77 17 142 19 90 4 91 4 78
17 -7 7 -49 13 -95 14 -79 3 -104 6 -149 20 -42 14 -14 33 58 40 79 7 139 17
155 26 10 5 19 5 23 0 6 -10 37 -7 58 6 6 4 15 8 20 9 4 1 10 2 15 3 4 1 7 27
8 59 1 97 71 213 110 181 8 -6 12 -19 10 -28 -22 -76 -27 -184 -9 -202 44 -44
193 18 193 82 0 32 -6 35 -33 14 -41 -31 -59 10 -37 85 6 19 11 57 11 85 1 57
-23 85 -73 85 -33 0 -104 -33 -111 -52 -3 -9 -7 -7 -12 6 -5 10 -3 21 2 25 19
11 53 76 53 99 0 41 -32 94 -76 125 -23 16 -45 29 -49 27 -4 -1 -11 2 -14 7
-3 5 -33 17 -66 27 -59 19 -254 31 -300 20z m87 -313 c-16 -14 -31 -18 -55
-14 -17 4 -40 6 -49 7 -10 0 -18 5 -18 11 0 7 29 12 73 13 72 2 72 2 49 -17z
m157 6 c12 3 12 2 -2 -7 -21 -13 -52 -5 -42 11 5 7 11 7 17 1 6 -6 18 -8 27
-5z m50 -101 c14 -16 0 -30 -41 -40 -33 -8 -35 2 -8 32 24 26 33 27 49 8z
m-31 -112 c24 -7 25 -26 1 -29 -63 -10 -64 -10 -67 13 -4 23 17 29 66 16z m26
-79 l17 -25 -49 3 c-27 2 -54 7 -60 11 -18 11 -5 25 20 21 11 -3 28 0 37 5 9
5 17 10 17 10 1 0 9 -11 18 -25z"/>
</g>
</svg>
